<?xml version="1.0" standalone="no"?>
<!DOCTYPE svg PUBLIC "-//W3C//DTD SVG 20010904//EN"
 "http://www.w3.org/TR/2001/REC-SVG-20010904/DTD/svg10.dtd">
<svg version="1.0" xmlns="http://www.w3.org/2000/svg"
 width="153.000000pt" height="216.000000pt" viewBox="0 0 153.000000 216.000000"
 preserveAspectRatio="xMidYMid meet">
<metadata>
Created by potrace 1.10, written by Peter Selinger 2001-2011
</metadata>
<g transform="translate(0.000000,216.000000) scale(0.100000,-0.100000)"
fill="#000000" stroke="none">
<path d="M695 2114 c-64 -33 -114 -81 -142 -134 -15 -30 -33 -62 -40 -70 -16
-21 -113 -250 -113 -268 0 -8 -15 -49 -34 -92 -19 -43 -32 -81 -30 -83 3 -3
-6 -29 -19 -58 -13 -30 -34 -88 -46 -129 -13 -41 -32 -97 -42 -125 -11 -27
-28 -81 -39 -120 -10 -38 -24 -86 -31 -105 -7 -19 -20 -57 -30 -85 -9 -27 -24
-79 -33 -115 -9 -36 -18 -72 -20 -80 -2 -8 -7 -28 -11 -45 -4 -16 -11 -41 -16
-55 -5 -14 -11 -41 -13 -60 -3 -19 -8 -54 -12 -78 -7 -48 10 -190 29 -237 6
-16 21 -40 33 -52 31 -31 129 -70 194 -77 30 -4 69 -8 85 -10 17 -2 59 -7 95
-11 70 -8 565 -9 577 -2 5 3 49 8 98 12 50 4 108 11 130 16 69 16 145 43 145
51 0 4 5 8 11 8 25 0 73 75 83 130 8 45 9 158 1 190 -3 14 -8 39 -11 55 -2 17
-9 44 -14 60 -6 17 -15 50 -22 75 -14 53 -13 51 -21 70 -3 8 -13 42 -22 75
-19 74 -142 457 -161 505 -8 19 -16 44 -18 55 -2 11 -15 49 -29 85 -13 36 -41
112 -62 170 -46 132 -106 283 -115 290 -3 3 -19 31 -35 63 -35 71 -119 165
-162 183 -43 18 -101 18 -138 -2z m124 -39 c95 -48 187 -217 309 -565 211
-599 328 -990 339 -1131 14 -188 -37 -256 -217 -287 -141 -25 -273 -34 -497
-33 -298 0 -491 21 -580 61 -75 34 -87 55 -104 174 -13 94 -8 139 33 296 11
41 26 102 34 135 9 33 29 99 45 146 16 47 36 112 44 145 9 32 27 88 40 124 13
36 35 99 48 140 14 41 41 120 62 175 20 55 45 126 55 157 54 163 149 356 202
409 63 63 132 83 187 54z"/>
</g>
</svg>
